<?xml version="1.0" encoding="utf-8" standalone="no"?>
<!DOCTYPE svg PUBLIC "-//W3C//DTD SVG 1.1//EN"
  "http://www.w3.org/Graphics/SVG/1.1/DTD/svg11.dtd">
<svg xmlns:xlink="http://www.w3.org/1999/xlink" width="189.81pt" height="244.044pt" viewBox="0 0 189.81 244.044" xmlns="http://www.w3.org/2000/svg" version="1.1">
 <metadata>
  <rdf:RDF xmlns:dc="http://purl.org/dc/elements/1.1/" xmlns:cc="http://creativecommons.org/ns#" xmlns:rdf="http://www.w3.org/1999/02/22-rdf-syntax-ns#">
   <cc:Work>
    <dc:type rdf:resource="http://purl.org/dc/dcmitype/StillImage"/>
    <dc:date>2026-07-17T15:21:38.593495</dc:date>
    <dc:format>image/svg+xml</dc:format>
    <dc:creator>
     <cc:Agent>
      <dc:title>Matplotlib v3.9.2, https://matplotlib.org/</dc:title>
     </cc:Agent>
    </dc:creator>
   </cc:Work>
  </rdf:RDF>
 </metadata>
 <defs>
  <style type="text/css">*{stroke-linejoin: round; stroke-linecap: butt}</style>
 </defs>
 <g id="figure_1">
  <g id="patch_1">
   <path d="M 0 244.044 
L 189.81 244.044 
L 189.81 0 
L 0 0 
z
" style="fill: #ffffff"/>
  </g>
  <g id="axes_1">
   <g id="patch_2">
    <path d="M 7.42176 113.098932 
L 182.38824 113.098932 
Q 186.12684 113.098932 186.12684 108.275652 
L 186.12684 7.951428 
Q 186.12684 3.128148 182.38824 3.128148 
L 7.42176 3.128148 
Q 3.68316 3.128148 3.68316 7.951428 
L 3.68316 108.275652 
Q 3.68316 113.098932 7.42176 113.098932 
z
" clip-path="url(#p8dcb8f7cef)" style="fill: #fafafa; stroke: #d8d8d8; stroke-width: 0.7; stroke-linejoin: miter"/>
   </g>
   <g id="patch_3">
    <path d="M 7.42176 239.710032 
L 182.38824 239.710032 
Q 186.12684 239.710032 186.12684 234.886752 
L 186.12684 126.121788 
Q 186.12684 121.298508 182.38824 121.298508 
L 7.42176 121.298508 
Q 3.68316 121.298508 3.68316 126.121788 
L 3.68316 234.886752 
Q 3.68316 239.710032 7.42176 239.710032 
z
" clip-path="url(#p8dcb8f7cef)" style="fill: #fbfdff; stroke: #c9d9ed; stroke-width: 0.7; stroke-linejoin: miter"/>
   </g>
   <g id="patch_4">
    <path d="M 11.90808 58.595868 
L 41.44302 58.595868 
Q 44.80776 58.595868 44.80776 54.254916 
L 44.80776 30.620844 
Q 44.80776 26.279892 41.44302 26.279892 
L 11.90808 26.279892 
Q 8.54334 26.279892 8.54334 30.620844 
L 8.54334 54.254916 
Q 8.54334 58.595868 11.90808 58.595868 
z
" clip-path="url(#p8dcb8f7cef)" style="fill: #f4f5f7; stroke: #4d4d4d; stroke-linejoin: miter"/>
   </g>
   <g id="patch_5">
    <path d="M 56.77128 58.595868 
L 91.91412 58.595868 
Q 95.27886 58.595868 95.27886 54.254916 
L 95.27886 30.620844 
Q 95.27886 26.279892 91.91412 26.279892 
L 56.77128 26.279892 
Q 53.40654 26.279892 53.40654 30.620844 
L 53.40654 54.254916 
Q 53.40654 58.595868 56.77128 58.595868 
z
" clip-path="url(#p8dcb8f7cef)" style="fill: #f4f5f7; stroke: #4d4d4d; stroke-linejoin: miter"/>
   </g>
   <g id="patch_6">
    <path d="M 107.24238 58.595868 
L 140.51592 58.595868 
Q 143.88066 58.595868 143.88066 54.254916 
L 143.88066 30.620844 
Q 143.88066 26.279892 140.51592 26.279892 
L 107.24238 26.279892 
Q 103.87764 26.279892 103.87764 30.620844 
L 103.87764 54.254916 
Q 103.87764 58.595868 107.24238 58.595868 
z
" clip-path="url(#p8dcb8f7cef)" style="fill: #f9e4e1; stroke: #b64342; stroke-linejoin: miter"/>
   </g>
   <g id="patch_7">
    <path d="M 157.71348 58.595868 
L 176.03262 58.595868 
Q 179.39736 58.595868 179.39736 54.254916 
L 179.39736 30.620844 
Q 179.39736 26.279892 176.03262 26.279892 
L 157.71348 26.279892 
Q 154.34874 26.279892 154.34874 30.620844 
L 154.34874 54.254916 
Q 154.34874 58.595868 157.71348 58.595868 
z
" clip-path="url(#p8dcb8f7cef)" style="fill: #ddf3de; stroke: #6faf70; stroke-linejoin: miter"/>
   </g>
   <g id="patch_8">
    <path d="M 44.567617 42.43788 
Q 49.108944 42.43788 52.420434 42.43788 
" clip-path="url(#p8dcb8f7cef)" style="fill: none; stroke: #4d4d4d; stroke-width: 1.1; stroke-linecap: round"/>
    <path d="M 48.420434 40.43788 
L 52.420434 42.43788 
L 48.420434 44.43788 
z
" clip-path="url(#p8dcb8f7cef)" style="fill: #4d4d4d; stroke: #4d4d4d; stroke-width: 1.1; stroke-linecap: round"/>
   </g>
   <g id="patch_9">
    <path d="M 95.038717 42.43788 
Q 99.580044 42.43788 102.891534 42.43788 
" clip-path="url(#p8dcb8f7cef)" style="fill: none; stroke: #4d4d4d; stroke-width: 1.1; stroke-linecap: round"/>
    <path d="M 98.891534 40.43788 
L 102.891534 42.43788 
L 98.891534 44.43788 
z
" clip-path="url(#p8dcb8f7cef)" style="fill: #4d4d4d; stroke: #4d4d4d; stroke-width: 1.1; stroke-linecap: round"/>
   </g>
   <g id="patch_10">
    <path d="M 143.634584 42.43788 
Q 149.112024 42.43788 153.359626 42.43788 
" clip-path="url(#p8dcb8f7cef)" style="fill: none; stroke: #4d4d4d; stroke-width: 1.1; stroke-linecap: round"/>
    <path d="M 149.359626 40.43788 
L 153.359626 42.43788 
L 149.359626 44.43788 
z
" clip-path="url(#p8dcb8f7cef)" style="fill: #4d4d4d; stroke: #4d4d4d; stroke-width: 1.1; stroke-linecap: round"/>
   </g>
   <g id="patch_11">
    <path d="M 150.23628 102.005388 
L 176.03262 102.005388 
Q 179.39736 102.005388 179.39736 97.664436 
L 179.39736 76.442004 
Q 179.39736 72.101052 176.03262 72.101052 
L 150.23628 72.101052 
Q 146.87154 72.101052 146.87154 76.442004 
L 146.87154 97.664436 
Q 146.87154 102.005388 150.23628 102.005388 
z
" clip-path="url(#p8dcb8f7cef)" style="fill: #f4f5f7; stroke: #4d4d4d; stroke-linejoin: miter"/>
   </g>
   <g id="patch_12">
    <path d="M 166.584851 57.684909 
Q 165.471005 65.348944 164.534038 71.795927 
" clip-path="url(#p8dcb8f7cef)" style="fill: none; stroke: #4d4d4d; stroke-width: 1.1; stroke-linecap: round"/>
    <path d="M 167.088537 68.12516 
L 164.534038 71.795927 
L 163.130124 67.549867 
z
" clip-path="url(#p8dcb8f7cef)" style="fill: #4d4d4d; stroke: #4d4d4d; stroke-width: 1.1; stroke-linecap: round"/>
   </g>
   <g id="patch_13">
    <path d="M 11.90808 169.531308 
L 39.57372 169.531308 
Q 42.93846 169.531308 42.93846 165.190356 
L 42.93846 141.556284 
Q 42.93846 137.215332 39.57372 137.215332 
L 11.90808 137.215332 
Q 8.54334 137.215332 8.54334 141.556284 
L 8.54334 165.190356 
Q 8.54334 169.531308 11.90808 169.531308 
z
" clip-path="url(#p8dcb8f7cef)" style="fill: #ddf3de; stroke: #6faf70; stroke-linejoin: miter"/>
   </g>
   <g id="patch_14">
    <path d="M 54.90198 169.531308 
L 91.91412 169.531308 
Q 95.27886 169.531308 95.27886 165.190356 
L 95.27886 141.556284 
Q 95.27886 137.215332 91.91412 137.215332 
L 54.90198 137.215332 
Q 51.53724 137.215332 51.53724 141.556284 
L 51.53724 165.190356 
Q 51.53724 169.531308 54.90198 169.531308 
z
" clip-path="url(#p8dcb8f7cef)" style="fill: #e5eef8; stroke: #0f4d92; stroke-linejoin: miter"/>
   </g>
   <g id="patch_15">
    <path d="M 106.30773 175.560408 
L 143.31987 175.560408 
Q 146.68461 175.560408 146.68461 171.219456 
L 146.68461 135.527184 
Q 146.68461 131.186232 143.31987 131.186232 
L 106.30773 131.186232 
Q 102.94299 131.186232 102.94299 135.527184 
L 102.94299 171.219456 
Q 102.94299 175.560408 106.30773 175.560408 
z
" clip-path="url(#p8dcb8f7cef)" style="fill: #ffffff; stroke: #0f4d92; stroke-width: 1.2; stroke-linejoin: miter"/>
   </g>
   <g id="patch_16">
    <path d="M 152.10558 149.032368 
L 181.64052 149.032368 
Q 185.00526 149.032368 185.00526 144.691416 
L 185.00526 127.086444 
Q 185.00526 122.745492 181.64052 122.745492 
L 152.10558 122.745492 
Q 148.74084 122.745492 148.74084 127.086444 
L 148.74084 144.691416 
Q 148.74084 149.032368 152.10558 149.032368 
z
" clip-path="url(#p8dcb8f7cef)" style="fill: #ddf3de; stroke: #6faf70; stroke-linejoin: miter"/>
   </g>
   <g id="patch_17">
    <path d="M 152.10558 208.117548 
L 181.64052 208.117548 
Q 185.00526 208.117548 185.00526 203.776596 
L 185.00526 186.171624 
Q 185.00526 181.830672 181.64052 181.830672 
L 152.10558 181.830672 
Q 148.74084 181.830672 148.74084 186.171624 
L 148.74084 203.776596 
Q 148.74084 208.117548 152.10558 208.117548 
z
" clip-path="url(#p8dcb8f7cef)" style="fill: #f9e4e1; stroke: #b64342; stroke-linejoin: miter"/>
   </g>
   <g id="patch_18">
    <path d="M 42.698317 153.37332 
Q 47.239644 153.37332 50.551134 153.37332 
" clip-path="url(#p8dcb8f7cef)" style="fill: none; stroke: #0f4d92; stroke-width: 1.1; stroke-linecap: round"/>
    <path d="M 46.551134 151.37332 
L 50.551134 153.37332 
L 46.551134 155.37332 
z
" clip-path="url(#p8dcb8f7cef)" style="fill: #0f4d92; stroke: #0f4d92; stroke-width: 1.1; stroke-linecap: round"/>
   </g>
   <g id="patch_19">
    <path d="M 95.038032 153.37332 
Q 99.113631 153.37332 101.959393 153.37332 
" clip-path="url(#p8dcb8f7cef)" style="fill: none; stroke: #0f4d92; stroke-width: 1.1; stroke-linecap: round"/>
    <path d="M 97.959393 151.37332 
L 101.959393 153.37332 
L 97.959393 155.37332 
z
" clip-path="url(#p8dcb8f7cef)" style="fill: #0f4d92; stroke: #0f4d92; stroke-width: 1.1; stroke-linecap: round"/>
   </g>
   <g id="patch_20">
    <path d="M 145.564353 144.482753 
Q 147.711835 141.316432 149.169003 139.167934 
" clip-path="url(#p8dcb8f7cef)" style="fill: none; stroke: #0f4d92; stroke-width: 1.1; stroke-linecap: round"/>
    <path d="M 145.268563 141.355757 
L 149.169003 139.167934 
L 148.578996 143.60098 
z
" clip-path="url(#p8dcb8f7cef)" style="fill: #0f4d92; stroke: #0f4d92; stroke-width: 1.1; stroke-linecap: round"/>
   </g>
   <g id="patch_21">
    <path d="M 144.835185 163.77337 
Q 147.712563 178.091825 150.347642 191.204547 
" clip-path="url(#p8dcb8f7cef)" style="fill: none; stroke: #b64342; stroke-width: 1.1; stroke-linecap: round"/>
    <path d="M 151.520374 186.888912 
L 150.347642 191.204547 
L 147.598773 187.676981 
z
" clip-path="url(#p8dcb8f7cef)" style="fill: #b64342; stroke: #b64342; stroke-width: 1.1; stroke-linecap: round"/>
   </g>
   <g id="text_1">
    <text style="font: 700 9px 'SimSun', 'Microsoft YaHei', 'Arial', 'DejaVu Sans', sans-serif; text-anchor: start" x="10.7865" y="16.314334" transform="rotate(-0 10.7865 16.314334)">a</text>
   </g>
   <g id="text_2">
    <text style="fill: #4d4d4d; font: 700 7.6px 'SimSun', 'Microsoft YaHei', 'Arial', 'DejaVu Sans', sans-serif; text-anchor: start" x="22.0023" y="16.359943" transform="rotate(-0 22.0023 16.359943)">SAT 直接接受</text>
   </g>
   <g id="text_3">
    <text style="font: 700 9px 'SimSun', 'Microsoft YaHei', 'Arial', 'DejaVu Sans', sans-serif; text-anchor: start" x="10.7865" y="134.484694" transform="rotate(-0 10.7865 134.484694)">b</text>
   </g>
   <g id="text_4">
    <text style="fill: #0f4d92; font: 700 7.6px 'SimSun', 'Microsoft YaHei', 'Arial', 'DejaVu Sans', sans-serif; text-anchor: start" x="22.0023" y="134.530303" transform="rotate(-0 22.0023 134.530303)">SPARC 的 SAT 后决策</text>
   </g>
   <g id="text_5">
    <text style="fill: #272727; font: 7px 'SimSun', 'Microsoft YaHei', 'Arial', 'DejaVu Sans', sans-serif" transform="translate(19.67555 41.365321)">题面</text>
    <!-- $P$ -->
    <g style="fill: #272727" transform="translate(24.54055 48.022157)">
     <text>
      <tspan style="font: oblique 7px 'DejaVu Sans'" x="0" y="-0.890625">P</tspan>
     </text>
    </g>
   </g>
   <g id="text_6">
    <text style="fill: #272727; font: 7px 'SimSun', 'Microsoft YaHei', 'Arial', 'DejaVu Sans', sans-serif" transform="translate(69.0927 40.892958)">LLM</text>
    <text style="fill: #272727; font: 7px 'SimSun', 'Microsoft YaHei', 'Arial', 'DejaVu Sans', sans-serif" transform="translate(63.8427 48.084364)">形式化</text>
   </g>
   <g id="text_7">
    <text style="fill: #272727; font: 7px 'SimSun', 'Microsoft YaHei', 'Arial', 'DejaVu Sans', sans-serif" transform="translate(116.87915 41.447353)">约束</text>
    <!-- $C$ -->
    <g style="fill: #272727" transform="translate(121.42915 48.104189)">
     <text>
      <tspan style="font: oblique 7px 'DejaVu Sans'" x="0" y="-0.796875">C</tspan>
     </text>
    </g>
   </g>
   <g id="text_8">
    <text style="fill: #272727; font: 700 6.6px 'SimSun', 'Microsoft YaHei', 'Arial', 'DejaVu Sans', sans-serif; text-anchor: middle" x="166.87305" y="44.371474" transform="rotate(-0 166.87305 44.371474)">SAT</text>
   </g>
   <g id="text_9">
    <text style="fill: #272727; font: 6.8px 'SimSun', 'Microsoft YaHei', 'Arial', 'DejaVu Sans', sans-serif" transform="translate(156.33445 85.758962)">直接</text>
    <text style="fill: #272727; font: 6.8px 'SimSun', 'Microsoft YaHei', 'Arial', 'DejaVu Sans', sans-serif" transform="translate(156.33445 92.83654)">作答</text>
   </g>
   <g id="text_10">
    <text style="fill: #b64342; font: 6px 'SimSun', 'Microsoft YaHei', 'Arial', 'DejaVu Sans', sans-serif" transform="translate(103.4673 82.450213)">线索可能</text>
    <text style="fill: #b64342; font: 6px 'SimSun', 'Microsoft YaHei', 'Arial', 'DejaVu Sans', sans-serif" transform="translate(100.4673 88.405682)">遗漏或弱化</text>
   </g>
   <g id="text_11">
    <!-- SAT 只证明当前 $C$ 内部一致 -->
    <g style="fill: #b64342" transform="translate(51.725 106.254137)">
     <text>
      <tspan style="font: 6.8px 'SimSun'" x="0 3.398438 6.796875 10.195312 13.59375 20.390625 27.1875 33.984375 40.78125 47.578125 55.722427 59.120865 65.91774 72.714615 79.51149" y="-0.421875">SAT 只证明当前  内部一致</tspan>
      <tspan style="font: oblique 6.8px 'DejaVu Sans'" x="50.976562" y="-0.421875">C</tspan>
     </text>
    </g>
   </g>
   <g id="text_12">
    <text style="fill: #272727; font: 700 6.8px 'SimSun', 'Microsoft YaHei', 'Arial', 'DejaVu Sans', sans-serif" transform="translate(20.6409 151.841992)">SAT</text>
    <text style="fill: #272727; font: 700 6.8px 'SimSun', 'Microsoft YaHei', 'Arial', 'DejaVu Sans', sans-serif" transform="translate(18.9409 158.889023)">状态</text>
   </g>
   <g id="text_13">
    <text style="fill: #0f4d92; font: 700 6.8px 'SimSun', 'Microsoft YaHei', 'Arial', 'DejaVu Sans', sans-serif" transform="translate(64.90805 151.841992)">SPARC</text>
    <text style="fill: #0f4d92; font: 700 6.8px 'SimSun', 'Microsoft YaHei', 'Arial', 'DejaVu Sans', sans-serif" transform="translate(59.80805 158.889023)">结构门控</text>
   </g>
   <g id="text_14">
    <text style="fill: #0f4d92; font: 6.3px 'SimSun', 'Microsoft YaHei', 'Arial', 'DejaVu Sans', sans-serif" transform="translate(112.2138 148.853193)">答案投影</text>
    <text style="fill: #0f4d92; font: 6.3px 'SimSun', 'Microsoft YaHei', 'Arial', 'DejaVu Sans', sans-serif" transform="translate(112.2138 155.438662)">满足任务</text>
    <text style="fill: #0f4d92; font: 6.3px 'SimSun', 'Microsoft YaHei', 'Arial', 'DejaVu Sans', sans-serif" transform="translate(109.0638 162.052431)">结构条件？</text>
   </g>
   <g id="text_15">
    <text style="fill: #272727; font: 700 6.2px 'SimSun', 'Microsoft YaHei', 'Arial', 'DejaVu Sans', sans-serif" transform="translate(154.47305 134.708871)">结构通过</text>
    <text style="fill: #272727; font: 700 6.2px 'SimSun', 'Microsoft YaHei', 'Arial', 'DejaVu Sans', sans-serif" transform="translate(160.67305 141.161957)">作答</text>
   </g>
   <g id="text_16">
    <text style="fill: #b64342; font: 700 6.2px 'SimSun', 'Microsoft YaHei', 'Arial', 'DejaVu Sans', sans-serif" transform="translate(157.57305 193.821903)">结构性</text>
    <text style="fill: #b64342; font: 700 6.2px 'SimSun', 'Microsoft YaHei', 'Arial', 'DejaVu Sans', sans-serif" transform="translate(160.67305 200.219286)">拒答</text>
   </g>
   <g id="text_17">
    <text style="fill: #0f4d92; font: 6.2px 'SimSun', 'Microsoft YaHei', 'Arial', 'DejaVu Sans', sans-serif; text-anchor: middle" x="79.9506" y="219.352483" transform="rotate(-0 79.9506 219.352483)">唯一答案任务：检查答案投影唯一性</text>
   </g>
   <g id="text_18">
    <text style="fill: #4d4d4d; font: 6px 'SimSun', 'Microsoft YaHei', 'Arial', 'DejaVu Sans', sans-serif; text-anchor: middle" x="94.905" y="232.584862" transform="rotate(-0 94.905 232.584862)">结构条件是接受的必要条件，不等价于语义验证</text>
   </g>
  </g>
 </g>
 <defs>
  <clipPath id="p8dcb8f7cef">
   <rect x="1.44" y="1.44" width="186.93" height="241.164"/>
  </clipPath>
 </defs>
</svg>
